<?xml version="1.0" standalone="no"?>
<!DOCTYPE svg PUBLIC "-//W3C//DTD SVG 20010904//EN"
 "http://www.w3.org/TR/2001/REC-SVG-20010904/DTD/svg10.dtd">
<svg version="1.0" xmlns="http://www.w3.org/2000/svg"
 width="700.000000pt" height="700.000000pt" viewBox="0 0 700.000000 700.000000"
 preserveAspectRatio="xMidYMid meet">
<metadata>
Created by potrace 1.14, written by Peter Selinger 2001-2017
</metadata>
<g transform="translate(0.000000,700.000000) scale(0.100000,-0.100000)"
fill="#000000" stroke="none">
<path d="M3322 6509 c-481 -40 -956 -271 -1332 -649 -263 -263 -495 -622 -631
-977 l-42 -112 -54 49 c-30 27 -87 66 -128 86 -134 66 -246 46 -345 -63 -82
-90 -139 -229 -176 -428 -26 -140 -27 -613 -1 -790 99 -675 331 -1251 621
-1540 119 -118 189 -157 298 -163 l78 -5 74 -106 c452 -650 1109 -1020 1813
-1021 454 0 916 169 1298 475 203 162 442 437 587 673 l37 60 47 -24 c37 -19
63 -24 119 -24 63 0 82 5 146 37 251 125 497 579 613 1132 160 759 78 1516
-194 1788 -74 74 -127 98 -220 98 -89 0 -153 -26 -241 -98 l-57 -45 -38 91
c-78 188 -207 420 -324 582 -362 500 -852 833 -1382 940 -119 24 -339 46 -422
44 -23 -1 -87 -6 -144 -10z m-456 -1700 c198 -27 354 -102 517 -248 37 -34 74
-61 82 -61 8 0 47 30 87 66 132 118 257 187 415 226 112 28 312 30 417 4 300
-73 543 -286 637 -559 83 -241 58 -477 -75 -701 -47 -79 -167 -207 -241 -256
-64 -42 -105 -80 -105 -97 0 -7 22 -57 49 -111 117 -236 156 -479 116 -727
-28 -172 -120 -400 -171 -424 -32 -14 -2126 -16 -2154 -1 -23 12 -54 66 -95
165 -127 306 -119 640 21 946 31 68 44 108 40 124 -4 16 -29 35 -82 64 -308
166 -481 465 -461 796 14 221 97 397 265 557 196 187 469 275 738 237z m1481
-3172 c22 -23 -181 -156 -331 -217 -348 -142 -750 -129 -1078 36 -94 47 -248
152 -248 169 0 8 10 16 23 18 41 8 1625 2 1634 -6z"/>
<path d="M4025 4321 c-144 -37 -247 -166 -248 -309 -1 -39 7 -89 17 -120 25
-74 98 -151 177 -186 54 -25 71 -28 142 -24 135 6 230 68 285 187 38 81 37
193 -1 272 -32 67 -100 132 -165 161 -50 23 -157 32 -207 19z"/>
<path d="M2634 4270 c-71 -28 -137 -89 -171 -158 -24 -50 -28 -69 -28 -147 0
-79 4 -97 28 -142 36 -69 88 -120 156 -152 80 -37 192 -37 272 0 113 53 179
152 187 279 7 131 -54 242 -169 305 -73 39 -197 46 -275 15z"/>
<path d="M3026 2934 c-12 -11 -16 -35 -16 -89 0 -54 4 -78 16 -89 14 -14 67
-16 439 -16 372 0 425 2 439 16 12 11 16 35 16 89 0 54 -4 78 -16 89 -14 14
-67 16 -439 16 -372 0 -425 -2 -439 -16z"/>
<path d="M3895 770 c3 -5 8 -10 11 -10 2 0 4 5 4 10 0 6 -5 10 -11 10 -5 0 -7
-4 -4 -10z"/>
</g>
</svg>
